Patient4_TMGait_0pt4_03_left_01_GRF.mot
version=1
nRows=39
nColumns=19
inDegrees=no
endheader
time	F1x	F1y	F1z	M1x	M1y	M1z	F2x	F2y	F2z	M2x	M2y	M2z	EC1x	EC1y	EC1z	EC2x	EC2y	EC2z
0.83	-0.19074	13.0747	-5.3154	-2.7718	3.723	13.8258	-37.5754	709.7816	-52.8221	263.2178	74.0718	794.1807	-0.0592	0.0182	-0.0073	-0.0462	0.0165	0.9585
0.84321	-0.14457	9.4101	-3.5181	-2.076	2.3934	9.9088	-37.326	714.4593	-54.8835	264.2099	75.3457	792.6192	-0.0592	0.0182	-0.0073	-0.0462	0.0165	0.9585
0.85643	-0.12798	6.306	-1.9873	-1.4914	1.269	6.6178	-36.6387	719.9057	-56.2663	265.6265	75.8012	792.015	-0.0592	0.0182	-0.0073	-0.0462	0.0165	0.9585
0.86964	-0.1314	3.9536	-0.80528	-1.0543	0.40538	4.1409	-35.5284	726.5982	-56.9388	267.676	75.454	793.1311	-0.0592	0.0182	-0.0073	-0.0462	0.0165	0.9585
0.88286	-0.14216	2.3478	0.017837	-0.76268	-0.19272	2.4516	-34.0633	734.8926	-57.0293	270.4792	74.4762	796.3903	-0.0592	0.0182	-0.0073	-0.0462	0.0165	0.9585
0.89607	-0.17037	1.3771	0.54544	-0.59149	-0.58073	1.4285	-32.3359	744.7061	-56.7467	273.971	73.11	801.6426	-0.0592	0.0182	-0.0073	-0.0462	0.0165	0.9585
0.90929	-0.20643	0.86339	0.83783	-0.50147	-0.80277	0.87943	-30.4268	755.4596	-56.2673	277.8934	71.5482	808.1725	-0.0592	0.0182	-0.0073	-0.0462	0.0165	0.9585
0.9225	-0.26666	0.61966	0.97735	-0.44924	-0.92832	0.61267	-28.3911	766.1883	-55.7397	281.8436	69.9406	814.8671	-0.0592	0.0182	-0.0073	-0.0462	0.0165	0.9585
0.93571	-0.35016	0.46634	1.0226	-0.39354	-1.0019	0.42989	-26.2656	775.7136	-55.2417	285.3493	68.3567	820.4139	-0.0592	0.0182	-0.0073	-0.0462	0.0165	0.9585
0.94893	-0.46634	0.22581	1.0302	-0.28955	-1.0705	0.14124	-24.0733	782.8721	-54.8292	287.9548	66.8428	823.5496	-0.0592	0.0182	-0.0073	-0.0462	0.0165	0.9585
0.96214	-0.61556	-0.25792	1.0225	-0.094648	-1.1488	-0.41987	-21.7978	786.7632	-54.506	289.3124	65.3883	823.3159	-0.0592	0.0182	-0.0073	-0.0462	0.0165	0.9585
0.97536	-0.78773	-1.1045	1.0207	0.22705	-1.2465	-1.3836	-19.4086	786.8365	-54.2799	289.2153	63.9841	819.1431	-0.0592	0.0182	-0.0073	-0.0462	0.0165	0.9585
0.98857	-0.96411	-2.3811	1.0157	0.696	-1.3437	-2.8192	-16.8717	782.9587	-54.1431	287.624	62.6084	810.9072	-0.0592	0.0182	-0.0073	-0.0462	0.0165	0.9585
1.0018	-1.0865	-4.08	0.99503	1.3085	-1.4006	-4.7208	-14.1515	775.5032	-54.1008	284.6923	61.2545	799.0084	-0.0592	0.0182	-0.0073	-0.0462	0.0165	0.9585
1.015	-1.0882	-6.0453	0.92739	2.0107	-1.3513	-6.9128	-11.2322	765.3366	-54.1507	280.7627	59.9118	784.3465	-0.0592	0.0182	-0.0073	-0.0462	0.0165	0.9585
1.0282	-0.85717	-7.935	0.77631	2.6811	-1.1092	-9.0198	-8.0869	753.6803	-54.3134	276.3121	58.5858	768.1672	-0.0592	0.0182	-0.0073	-0.0462	0.0165	0.9585
1.0414	-0.26085	-9.1434	0.49168	3.1033	-0.56945	-10.358	-4.6768	741.9255	-54.6077	271.8723	57.2759	751.8807	-0.0592	0.0182	-0.0073	-0.0462	0.0165	0.9585
1.0546	0.86321	-8.7245	0.02253	2.9424	0.3718	-9.8642	-0.98237	731.3468	-55.0657	267.9212	56.0033	736.7781	-0.0592	0.0182	-0.0073	-0.0462	0.0165	0.9585
1.0679	2.6778	-5.3646	-0.67936	1.7365	1.8135	-6.0682	2.9571	722.8264	-55.7082	264.7773	54.809	723.7753	-0.0592	0.0182	-0.0073	-0.0462	0.0165	0.9585
1.0811	5.2995	2.5885	-1.6384	-1.0981	3.8149	2.8926	7.0411	716.6192	-56.5491	262.5144	53.7557	713.1976	-0.0592	0.0182	-0.0073	-0.0462	0.0165	0.9585
1.0943	8.7362	16.999	-2.8289	-6.2178	6.345	19.1191	11.0644	712.1989	-57.5601	260.9089	52.8976	704.6475	-0.0592	0.0182	-0.0073	-0.0462	0.0165	0.9585
1.1075	12.7875	39.6439	-4.1433	-14.244	9.205	44.6196	14.7292	708.2308	-58.6474	259.4366	52.2562	696.9692	-0.0592	0.0182	-0.0073	-0.0462	0.0165	0.9585
1.1207	16.9165	71.6465	-5.3522	-25.5666	11.9393	80.6618	17.7055	702.7169	-59.6261	257.335	51.7826	688.3726	-0.0592	0.0182	-0.0073	-0.0462	0.0165	0.9585
1.1339	20.0989	112.652	-6.0464	-40.0466	13.7176	126.8548	19.6698	693.3082	-60.2273	253.7267	51.3487	676.7251	-0.0592	0.0182	-0.0073	-0.0462	0.0165	0.9585
1.1471	20.7076	159.6852	-5.6079	-56.612	13.2674	179.8597	20.3904	677.7637	-60.1396	247.7957	50.7512	659.946	-0.0592	0.0182	-0.0073	-0.0462	0.0165	0.9585
1.1604	17.3587	206.7561	-3.1978	-73.1108	9.2093	233.0048	19.8021	654.6329	-59.0985	239.034	49.7696	636.6442	-0.0592	0.0182	-0.0073	-0.0462	0.0165	0.9585
1.1736	10.9986	248.2244	1.5018	-87.5295	1.6163	279.8837	18.1096	623.9228	-56.9963	227.4782	48.2433	606.7202	-0.0592	0.0182	-0.0073	-0.0462	0.0165	0.9585
1.1868	3.4301	283.2498	7.5157	-99.5861	-7.7936	319.2741	15.7593	587.209	-53.9955	213.7301	46.1697	571.4866	-0.0592	0.0182	-0.0073	-0.0462	0.0165	0.9585
1.2	-3.7701	314.0685	14.4447	-110.0817	-17.9919	353.414	13.3224	546.727	-50.4854	198.6286	43.6969	532.8416	-0.0592	0.0182	-0.0073	-0.0462	0.0165	0.9585
1.2132	-9.6355	343.4466	21.5726	-120.0354	-27.866	385.2758	11.2876	504.5029	-46.7258	182.9385	40.8789	492.5092	-0.0592	0.0182	-0.0073	-0.0462	0.0165	0.9585
1.2264	-13.8574	373.4185	28.5921	-130.1995	-36.9466	417.1466	9.9093	461.8629	-42.7708	167.1754	37.6643	451.6132	-0.0592	0.0182	-0.0073	-0.0462	0.0165	0.9585
1.2396	-16.4919	404.7656	34.8615	-140.9049	-44.5757	449.8714	9.1871	419.4294	-38.5305	151.5864	33.9589	410.7025	-0.0592	0.0182	-0.0073	-0.0462	0.0165	0.9585
1.2529	-17.7089	437.4269	40.2005	-152.1512	-50.5964	483.4169	8.9793	377.2811	-33.9383	136.2053	29.744	369.8556	-0.0592	0.0182	-0.0073	-0.0462	0.0165	0.9585
1.2661	-17.6293	471.059	44.3718	-163.8254	-54.8243	517.4034	8.988	335.2402	-29.0195	120.9567	25.1378	328.9515	-0.0592	0.0182	-0.0073	-0.0462	0.0165	0.9585
1.2793	-16.475	505.394	47.6448	-175.7954	-57.6164	551.6576	8.8917	293.102	-23.9453	105.7446	20.4067	287.8505	-0.0592	0.0182	-0.0073	-0.0462	0.0165	0.9585
1.2925	-14.4447	540.2162	50.167	-187.9497	-59.2281	585.9752	8.4034	250.9503	-18.9582	90.5686	15.869	246.6917	-0.0592	0.0182	-0.0073	-0.0462	0.0165	0.9585
1.3057	-11.9407	575.207	52.4576	-200.1169	-60.3478	620.1454	7.3204	209.2947	-14.3461	75.5845	11.8528	206.0094	-0.0592	0.0182	-0.0073	-0.0462	0.0165	0.9585
1.3189	-9.3718	609.9875	54.7988	-212.119	-61.4451	653.8418	5.6254	169.1099	-10.3327	61.1237	8.5767	166.7487	-0.0592	0.0182	-0.0073	-0.0462	0.0165	0.9585
1.3321	-7.0602	644.3015	57.5306	-223.8251	-63.0012	686.8852	3.478	131.7112	-7.0697	47.6451	6.1375	130.19	-0.0592	0.0182	-0.0073	-0.0462	0.0165	0.9585
